<?xml version="1.0" encoding="UTF-8" standalone="no"?>
<!-- Generator: Adobe Illustrator 25.2.0, SVG Export Plug-In . SVG Version: 6.00 Build 0)  -->

<svg
   xmlns:dc="http://purl.org/dc/elements/1.1/"
   xmlns:cc="http://creativecommons.org/ns#"
   xmlns:rdf="http://www.w3.org/1999/02/22-rdf-syntax-ns#"
   xmlns:svg="http://www.w3.org/2000/svg"
   xmlns="http://www.w3.org/2000/svg"
   xmlns:sodipodi="http://sodipodi.sourceforge.net/DTD/sodipodi-0.dtd"
   xmlns:inkscape="http://www.inkscape.org/namespaces/inkscape"
   version="1.1"
   id="Layer_1"
   x="0px"
   y="0px"
   viewBox="0 0 200 200"
   style="enable-background:new 0 0 200 200;"
   xml:space="preserve"
   sodipodi:docname="atch_logo.svg"
   inkscape:version="0.92.4 (5da689c313, 2019-01-14)"><metadata
   id="metadata15"><rdf:RDF><cc:Work
       rdf:about=""><dc:format>image/svg+xml</dc:format><dc:type
         rdf:resource="http://purl.org/dc/dcmitype/StillImage" /></cc:Work></rdf:RDF></metadata><defs
   id="defs13" /><sodipodi:namedview
   pagecolor="#ffffff"
   bordercolor="#666666"
   borderopacity="1"
   objecttolerance="10"
   gridtolerance="10"
   guidetolerance="10"
   inkscape:pageopacity="0"
   inkscape:pageshadow="2"
   inkscape:window-width="836"
   inkscape:window-height="519"
   id="namedview11"
   showgrid="false"
   inkscape:zoom="1.18"
   inkscape:cx="100"
   inkscape:cy="100"
   inkscape:window-x="2422"
   inkscape:window-y="226"
   inkscape:window-maximized="0"
   inkscape:current-layer="Layer_1" />
<style
   type="text/css"
   id="style2">
	.st0{fill:none;stroke:#00FFCC;stroke-width:20;stroke-linecap:round;stroke-miterlimit:10;}
	.st1{fill:none;stroke:#606060;stroke-width:10;stroke-linecap:round;stroke-miterlimit:10;}
</style>

<g
   transform="matrix(3.108446,0,0,3.2089485,-147.27951,-744.36356)"
   id="g997"><g
     aria-label="Atch.js"
     transform="matrix(0.24208296,0,0,0.24208296,33.313913,224.88021)"
     style="font-style:normal;font-variant:normal;font-weight:normal;font-stretch:normal;font-size:40px;line-height:1.25;font-family:'Rolling Beat_Personal Use';-inkscape-font-specification:'Rolling Beat_Personal Use, Normal';font-variant-ligatures:normal;font-variant-caps:normal;font-variant-numeric:normal;font-feature-settings:normal;text-align:start;letter-spacing:0px;word-spacing:0px;writing-mode:lr-tb;text-anchor:start;fill:#606060;fill-opacity:1;stroke:none"
     id="flowRoot1037"><path
       d="m 152.12891,271.87002 h -5.09766 l -2.51953,-7.12891 h -11.01563 l -2.42187,7.12891 h -5.07813 l 10.48828,-28.00781 h 5.23438 z m -8.84766,-10.91797 -3.88672,-11.17187 q -0.17578,-0.54688 -0.37109,-1.75782 h -0.0781 q -0.17578,1.11329 -0.39062,1.75782 l -3.84766,11.17187 z"
       style="font-style:normal;font-variant:normal;font-weight:bold;font-stretch:normal;font-family:'Yu Gothic UI';-inkscape-font-specification:'Yu Gothic UI Bold';fill:#606060;fill-opacity:1"
       id="path931"
       inkscape:connector-curvature="0" /><path
       d="m 165.25391,271.65518 q -1.32813,0.66406 -3.4961,0.66406 -5.82031,0 -5.82031,-5.58594 v -11.30859 h -3.33984 v -3.55469 h 3.33984 v -4.62891 l 4.53125,-1.28906 v 5.91797 h 4.78516 v 3.55469 h -4.78516 v 10 q 0,1.77734 0.64453,2.53906 0.64453,0.76172 2.14844,0.76172 1.15234,0 1.99219,-0.66406 z"
       style="font-style:normal;font-variant:normal;font-weight:bold;font-stretch:normal;font-family:'Yu Gothic UI';-inkscape-font-specification:'Yu Gothic UI Bold';fill:#606060;fill-opacity:1"
       id="path933"
       inkscape:connector-curvature="0" /><path
       d="m 183.47656,270.95205 q -2.40234,1.38672 -5.68359,1.38672 -4.45313,0 -7.1875,-2.77344 -2.73438,-2.79297 -2.73438,-7.22656 0,-4.94141 2.92969,-7.92969 2.94922,-3.00781 7.87109,-3.00781 2.73438,0 4.82422,0.95703 v 4.21875 q -2.08984,-1.5625 -4.45312,-1.5625 -2.8711,0 -4.70703,1.95313 -1.83594,1.93359 -1.83594,5.07812 0,3.10547 1.71875,4.90235 1.73828,1.79687 4.64844,1.79687 2.4414,0 4.60937,-1.73828 z"
       style="font-style:normal;font-variant:normal;font-weight:bold;font-stretch:normal;font-family:'Yu Gothic UI';-inkscape-font-specification:'Yu Gothic UI Bold';fill:#606060;fill-opacity:1"
       id="path935"
       inkscape:connector-curvature="0" /><path
       d="m 205.76172,271.87002 h -4.53125 v -10.9375 q 0,-5.9375 -3.96485,-5.9375 -1.99218,0 -3.35937,1.71875 -1.36719,1.71875 -1.36719,4.39453 v 10.76172 h -4.55078 v -29.60937 h 4.55078 v 12.92968 h 0.0781 q 2.26562,-3.78906 6.48437,-3.78906 6.66016,0 6.66016,8.14453 z"
       style="font-style:normal;font-variant:normal;font-weight:bold;font-stretch:normal;font-family:'Yu Gothic UI';-inkscape-font-specification:'Yu Gothic UI Bold';fill:#606060;fill-opacity:1"
       id="path937"
       inkscape:connector-curvature="0" /><path
       d="m 213.14453,272.29971 q -1.17187,0 -1.99219,-0.76172 -0.82031,-0.78125 -0.82031,-1.85547 0,-1.09375 0.82031,-1.875 0.82032,-0.78125 1.99219,-0.78125 1.19141,0 2.01172,0.78125 0.83984,0.78125 0.83984,1.875 0,1.07422 -0.83984,1.85547 -0.82031,0.76172 -2.01172,0.76172 z"
       style="font-style:normal;font-variant:normal;font-weight:bold;font-stretch:normal;font-family:'Yu Gothic UI';-inkscape-font-specification:'Yu Gothic UI Bold';fill:#606060;fill-opacity:1"
       id="path939"
       inkscape:connector-curvature="0" /><path
       d="m 225.48828,271.03018 q 0,4.92187 -2.07031,7.57812 -2.07031,2.67578 -5.91797,2.67578 -1.42578,0 -2.77344,-0.625 v -3.88672 q 1.26953,0.87891 2.40235,0.87891 3.82812,0 3.82812,-6.75781 v -19.02344 h 4.53125 z m -2.22656,-23.35938 q -1.11328,0 -1.91406,-0.72265 -0.78125,-0.72266 -0.78125,-1.83594 0,-1.11328 0.78125,-1.85547 0.80078,-0.74219 1.91406,-0.74219 1.13281,0 1.93359,0.74219 0.80078,0.74219 0.80078,1.85547 0,1.05469 -0.80078,1.8164 -0.80078,0.74219 -1.93359,0.74219 z"
       style="font-style:normal;font-variant:normal;font-weight:bold;font-stretch:normal;font-family:'Yu Gothic UI';-inkscape-font-specification:'Yu Gothic UI Bold';fill:#606060;fill-opacity:1"
       id="path941"
       inkscape:connector-curvature="0" /><path
       d="m 230.17578,271.24502 v -4.19922 q 2.53906,1.9336 5.60547,1.9336 4.10156,0 4.10156,-2.42188 0,-0.68359 -0.35156,-1.15234 -0.35156,-0.48828 -0.95703,-0.85938 -0.58594,-0.37109 -1.40625,-0.66406 -0.80078,-0.29297 -1.79688,-0.66406 -1.23047,-0.48828 -2.22656,-1.03516 -0.97656,-0.54687 -1.64062,-1.23047 -0.64454,-0.70312 -0.97657,-1.58203 -0.33203,-0.87891 -0.33203,-2.05078 0,-1.44531 0.6836,-2.53906 0.68359,-1.11328 1.83593,-1.85547 1.15235,-0.76172 2.61719,-1.13281 1.46484,-0.39063 3.02734,-0.39063 2.77344,0 4.96094,0.83984 v 3.96485 q -2.10937,-1.44531 -4.84375,-1.44531 -0.85937,0 -1.5625,0.17578 -0.68359,0.17578 -1.17187,0.48828 -0.48828,0.3125 -0.76172,0.76172 -0.27344,0.42968 -0.27344,0.95703 0,0.64453 0.27344,1.09375 0.27344,0.44922 0.80078,0.80078 0.54687,0.33203 1.28906,0.625 0.76172,0.27344 1.73828,0.60547 1.28907,0.52734 2.30469,1.07422 1.03516,0.54687 1.75781,1.25 0.72266,0.68359 1.11328,1.60156 0.39063,0.89844 0.39063,2.14844 0,1.52343 -0.70313,2.65625 -0.70312,1.13281 -1.875,1.875 -1.17187,0.74218 -2.71484,1.09375 -1.52344,0.37109 -3.22266,0.37109 -3.28125,0 -5.68359,-1.09375 z"
       style="font-style:normal;font-variant:normal;font-weight:bold;font-stretch:normal;font-family:'Yu Gothic UI';-inkscape-font-specification:'Yu Gothic UI Bold';fill:#606060;fill-opacity:1"
       id="path943"
       inkscape:connector-curvature="0" /></g><g
     aria-label="Atch.js"
     transform="matrix(0.24208296,0,0,0.24208296,34.96573,223.95841)"
     style="font-style:normal;font-variant:normal;font-weight:normal;font-stretch:normal;font-size:40px;line-height:1.25;font-family:'Rolling Beat_Personal Use';-inkscape-font-specification:'Rolling Beat_Personal Use, Normal';font-variant-ligatures:normal;font-variant-caps:normal;font-variant-numeric:normal;font-feature-settings:normal;text-align:start;letter-spacing:0px;word-spacing:0px;writing-mode:lr-tb;text-anchor:start;fill:#00ffcc;fill-opacity:1;stroke:none"
     id="flowRoot1037-9"><path
       d="m 152.12891,271.87002 h -5.09766 l -2.51953,-7.12891 h -11.01563 l -2.42187,7.12891 h -5.07813 l 10.48828,-28.00781 h 5.23438 z m -8.84766,-10.91797 -3.88672,-11.17187 q -0.17578,-0.54688 -0.37109,-1.75782 h -0.0781 q -0.17578,1.11329 -0.39062,1.75782 l -3.84766,11.17187 z"
       style="font-style:normal;font-variant:normal;font-weight:bold;font-stretch:normal;font-family:'Yu Gothic UI';-inkscape-font-specification:'Yu Gothic UI Bold';fill:#00ffcc;fill-opacity:1"
       id="path946"
       inkscape:connector-curvature="0" /><path
       d="m 165.25391,271.65518 q -1.32813,0.66406 -3.4961,0.66406 -5.82031,0 -5.82031,-5.58594 v -11.30859 h -3.33984 v -3.55469 h 3.33984 v -4.62891 l 4.53125,-1.28906 v 5.91797 h 4.78516 v 3.55469 h -4.78516 v 10 q 0,1.77734 0.64453,2.53906 0.64453,0.76172 2.14844,0.76172 1.15234,0 1.99219,-0.66406 z"
       style="font-style:normal;font-variant:normal;font-weight:bold;font-stretch:normal;font-family:'Yu Gothic UI';-inkscape-font-specification:'Yu Gothic UI Bold';fill:#00ffcc;fill-opacity:1"
       id="path948"
       inkscape:connector-curvature="0" /><path
       d="m 183.47656,270.95205 q -2.40234,1.38672 -5.68359,1.38672 -4.45313,0 -7.1875,-2.77344 -2.73438,-2.79297 -2.73438,-7.22656 0,-4.94141 2.92969,-7.92969 2.94922,-3.00781 7.87109,-3.00781 2.73438,0 4.82422,0.95703 v 4.21875 q -2.08984,-1.5625 -4.45312,-1.5625 -2.8711,0 -4.70703,1.95313 -1.83594,1.93359 -1.83594,5.07812 0,3.10547 1.71875,4.90235 1.73828,1.79687 4.64844,1.79687 2.4414,0 4.60937,-1.73828 z"
       style="font-style:normal;font-variant:normal;font-weight:bold;font-stretch:normal;font-family:'Yu Gothic UI';-inkscape-font-specification:'Yu Gothic UI Bold';fill:#00ffcc;fill-opacity:1"
       id="path950"
       inkscape:connector-curvature="0" /><path
       d="m 205.76172,271.87002 h -4.53125 v -10.9375 q 0,-5.9375 -3.96485,-5.9375 -1.99218,0 -3.35937,1.71875 -1.36719,1.71875 -1.36719,4.39453 v 10.76172 h -4.55078 v -29.60937 h 4.55078 v 12.92968 h 0.0781 q 2.26562,-3.78906 6.48437,-3.78906 6.66016,0 6.66016,8.14453 z"
       style="font-style:normal;font-variant:normal;font-weight:bold;font-stretch:normal;font-family:'Yu Gothic UI';-inkscape-font-specification:'Yu Gothic UI Bold';fill:#00ffcc;fill-opacity:1"
       id="path952"
       inkscape:connector-curvature="0" /><path
       d="m 213.14453,272.29971 q -1.17187,0 -1.99219,-0.76172 -0.82031,-0.78125 -0.82031,-1.85547 0,-1.09375 0.82031,-1.875 0.82032,-0.78125 1.99219,-0.78125 1.19141,0 2.01172,0.78125 0.83984,0.78125 0.83984,1.875 0,1.07422 -0.83984,1.85547 -0.82031,0.76172 -2.01172,0.76172 z"
       style="font-style:normal;font-variant:normal;font-weight:bold;font-stretch:normal;font-family:'Yu Gothic UI';-inkscape-font-specification:'Yu Gothic UI Bold';fill:#00ffcc;fill-opacity:1"
       id="path954"
       inkscape:connector-curvature="0" /><path
       d="m 225.48828,271.03018 q 0,4.92187 -2.07031,7.57812 -2.07031,2.67578 -5.91797,2.67578 -1.42578,0 -2.77344,-0.625 v -3.88672 q 1.26953,0.87891 2.40235,0.87891 3.82812,0 3.82812,-6.75781 v -19.02344 h 4.53125 z m -2.22656,-23.35938 q -1.11328,0 -1.91406,-0.72265 -0.78125,-0.72266 -0.78125,-1.83594 0,-1.11328 0.78125,-1.85547 0.80078,-0.74219 1.91406,-0.74219 1.13281,0 1.93359,0.74219 0.80078,0.74219 0.80078,1.85547 0,1.05469 -0.80078,1.8164 -0.80078,0.74219 -1.93359,0.74219 z"
       style="font-style:normal;font-variant:normal;font-weight:bold;font-stretch:normal;font-family:'Yu Gothic UI';-inkscape-font-specification:'Yu Gothic UI Bold';fill:#00ffcc;fill-opacity:1"
       id="path956"
       inkscape:connector-curvature="0" /><path
       d="m 230.17578,271.24502 v -4.19922 q 2.53906,1.9336 5.60547,1.9336 4.10156,0 4.10156,-2.42188 0,-0.68359 -0.35156,-1.15234 -0.35156,-0.48828 -0.95703,-0.85938 -0.58594,-0.37109 -1.40625,-0.66406 -0.80078,-0.29297 -1.79688,-0.66406 -1.23047,-0.48828 -2.22656,-1.03516 -0.97656,-0.54687 -1.64062,-1.23047 -0.64454,-0.70312 -0.97657,-1.58203 -0.33203,-0.87891 -0.33203,-2.05078 0,-1.44531 0.6836,-2.53906 0.68359,-1.11328 1.83593,-1.85547 1.15235,-0.76172 2.61719,-1.13281 1.46484,-0.39063 3.02734,-0.39063 2.77344,0 4.96094,0.83984 v 3.96485 q -2.10937,-1.44531 -4.84375,-1.44531 -0.85937,0 -1.5625,0.17578 -0.68359,0.17578 -1.17187,0.48828 -0.48828,0.3125 -0.76172,0.76172 -0.27344,0.42968 -0.27344,0.95703 0,0.64453 0.27344,1.09375 0.27344,0.44922 0.80078,0.80078 0.54687,0.33203 1.28906,0.625 0.76172,0.27344 1.73828,0.60547 1.28907,0.52734 2.30469,1.07422 1.03516,0.54687 1.75781,1.25 0.72266,0.68359 1.11328,1.60156 0.39063,0.89844 0.39063,2.14844 0,1.52343 -0.70313,2.65625 -0.70312,1.13281 -1.875,1.875 -1.17187,0.74218 -2.71484,1.09375 -1.52344,0.37109 -3.22266,0.37109 -3.28125,0 -5.68359,-1.09375 z"
       style="font-style:normal;font-variant:normal;font-weight:bold;font-stretch:normal;font-family:'Yu Gothic UI';-inkscape-font-specification:'Yu Gothic UI Bold';fill:#00ffcc;fill-opacity:1"
       id="path958"
       inkscape:connector-curvature="0" /></g></g><g
   id="g979"
   transform="matrix(3.108446,0,0,3.2089485,-59.198783,-740.48688)"><path
     sodipodi:nodetypes="cccccccccc"
     class="st0"
     d="M 64.682425,264.03837 50.082912,252.36295 c 0,0 -3.067754,-2.39434 -5.914031,0.37412 0,0 -2.54399,2.76846 -0.269363,5.40224 2.54399,2.93905 24.191855,19.52587 24.191855,19.52587 0,0 4.306831,2.72058 7.347641,-0.96671 2.78941,-3.37902 0.37412,-6.75804 0.37412,-6.75804 L 57.09834,239.63103 c 0,0 -3.450849,-6.45575 -8.601681,-2.73554 -4.692915,3.39099 -22.886938,39.69523 -22.886938,39.69523"
     id="path4"
     inkscape:connector-curvature="0"
     style="fill:none;stroke:#00ffcc;stroke-width:5.98586035;stroke-linecap:round;stroke-miterlimit:10" /><path
     sodipodi:nodetypes="cccccccccc"
     class="st1"
     d="m 64.682425,264.03837 -14.59951,-11.67542 c 0,0 -3.06775,-2.39434 -5.91403,0.37412 0,0 -2.54399,2.76846 -0.26936,5.40224 2.54399,2.93905 24.19185,19.52587 24.19185,19.52587 0,0 4.30683,2.72058 7.34764,-0.96671 2.78941,-3.37902 0.37412,-6.75804 0.37412,-6.75804 l -18.71479,-30.3094 c 0,0 -3.45085,-6.45575 -8.60168,-2.73554 -4.69292,3.39099 -22.886945,39.69523 -22.886945,39.69523"
     id="path6"
     inkscape:connector-curvature="0"
     style="fill:none;stroke:#606060;stroke-width:2.99293017;stroke-linecap:round;stroke-miterlimit:10" /></g></svg>